<?xml version="1.0" encoding="utf-8"?>
<!-- Generator: Adobe Illustrator 16.0.0, SVG Export Plug-In . SVG Version: 6.00 Build 0)  -->
<!DOCTYPE svg PUBLIC "-//W3C//DTD SVG 1.1//EN" "http://www.w3.org/Graphics/SVG/1.1/DTD/svg11.dtd">
<svg version="1.1" id="Layer_1" xmlns="http://www.w3.org/2000/svg" xmlns:xlink="http://www.w3.org/1999/xlink" x="0px" y="0px"
	 width="289.174px" height="67.602px" viewBox="0 0 289.174 67.602" enable-background="new 0 0 289.174 67.602"
	 xml:space="preserve">
<g>
	<path fill="#FFFFFF" d="M94.332,15.4c0.132-1.259-0.781-2.387-2.04-2.519l-1.92-0.201v-2.486c0-1.267-1.025-2.291-2.291-2.291
		h-1.191l-0.044-0.571c-0.096-1.264-1.197-2.208-2.459-2.111L49.387,7.903h-4.603l-9.546-1.001l0.379-3.613
		c0.055-0.53-0.331-1.008-0.863-1.063L13.567,0.005c-0.533-0.056-1.009,0.33-1.064,0.861l-0.255,2.438H8.442
		c-0.535,0-0.969,0.432-0.969,0.968v2.23L4.628,6.72C4.095,6.761,3.695,7.226,3.737,7.761L3.812,8.74
		c-0.328,0.396-0.533,0.898-0.533,1.454v1.241l-1.162,0.09c-1.263,0.097-2.207,1.198-2.11,2.458l2.915,38.044L2.456,56.47
		c-0.083,0.793,0.25,1.533,0.823,2.006v2.142c0,0.479,0.148,0.924,0.4,1.292l0.18,2.352c0.097,1.262,1.198,2.207,2.46,2.109
		l19.208-1.471l-0.322-4.186l-0.371,0.029v-2.029h-1.789c-1.717,0-3.107-1.392-3.107-3.107c0-1.717,1.39-3.108,3.107-3.108h8.583
		c1.716,0,3.106,1.392,3.106,3.108c0,1.716-1.39,3.107-3.106,3.107h-1.791v4.193h0.556l0.124,1.609l15.442-1.183l17.667,1.853
		l0.239-2.279h1.158v-4.193h-1.789c-1.716,0-3.107-1.392-3.107-3.107c0-1.717,1.391-3.108,3.107-3.108h8.582
		c1.716,0,3.107,1.392,3.107,3.108c0,1.716-1.392,3.107-3.107,3.107h-1.79v2.923l-0.987-0.103l-0.436,4.172l17.954,1.883
		c1.26,0.132,2.386-0.781,2.519-2.041l0.321-3.06c0.588-0.414,0.975-1.096,0.975-1.871v-1.653c0.239-0.395,0.365-0.861,0.327-1.356
		l-0.327-4.269v-0.154L94.332,15.4z M51.6,46.852H30.746v-3.944c0-4.249,2.547-7.898,6.195-9.523
		c-2.143-1.388-3.562-3.796-3.562-6.539c0-4.303,3.489-7.793,7.794-7.793s7.794,3.49,7.794,7.793c0,2.743-1.421,5.151-3.562,6.539
		c3.646,1.625,6.194,5.274,6.194,9.523V46.852z M66.639,42.911h-8.736V41.49c0-4.25-2.549-7.899-6.195-9.522
		c2.14-1.391,3.562-3.797,3.562-6.539c0-3.387-2.165-6.262-5.183-7.337c1.428-1.813,3.638-2.982,6.125-2.982
		c4.304,0,7.793,3.49,7.793,7.794c0,2.744-1.42,5.15-3.562,6.54c3.648,1.623,6.196,5.273,6.196,9.524V42.911z"/>
	<g>
		<path fill="#FFFFFF" d="M100.384,24.356h18.607v4.641h-13.478v7.573h12.704v4.642h-12.704v11.971h-5.13V24.356z"/>
		<path fill="#FFFFFF" d="M139.104,53.183h-4.642v-3.135h-0.082c-0.896,1.955-2.728,3.623-5.985,3.623
			c-5.252,0-7.125-3.705-7.125-7.695V33.64h4.886v9.894c0,2.157,0.163,5.741,3.583,5.741c3.216,0,4.479-2.361,4.479-4.967V33.64
			h4.886V53.183z"/>
		<path fill="#FFFFFF" d="M142.686,22.401h4.886v30.781h-4.886V22.401z"/>
		<path fill="#FFFFFF" d="M151.236,22.401h4.886v30.781h-4.886V22.401z"/>
		<path fill="#FFFFFF" d="M184.622,48.663c-2.728,3.746-6.474,5.253-10.708,5.253c-8.795,0-14.901-6.352-14.901-15.146
			c0-8.794,6.106-15.146,14.901-15.146c3.909,0,7.411,1.303,9.936,4.519l-2.199,1.834c-1.791-2.688-4.846-3.909-7.736-3.909
			c-7.532,0-12.215,5.537-12.215,12.703s4.683,12.704,12.215,12.704c2.891,0,6.474-1.385,8.51-4.479L184.622,48.663z"/>
		<path fill="#FFFFFF" d="M195.655,33.884c5.782,0,9.894,4.152,9.894,9.894s-4.111,9.894-9.894,9.894s-9.894-4.152-9.894-9.894
			S189.873,33.884,195.655,33.884z M195.655,51.474c4.601,0,7.451-3.461,7.451-7.696c0-4.234-2.851-7.695-7.451-7.695
			s-7.451,3.461-7.451,7.695C188.204,48.013,191.054,51.474,195.655,51.474z"/>
		<path fill="#FFFFFF" d="M208.967,39.665c0-1.385-0.203-4.316-0.203-5.293h2.443c0.04,1.385,0.081,2.932,0.162,3.299h0.122
			c0.978-2.077,3.38-3.787,6.434-3.787c5.863,0,7.166,3.99,7.166,8.102v11.197h-2.443V42.108c0-3.054-0.854-6.026-4.723-6.026
			c-3.624,0-6.515,2.524-6.515,7.695v9.405h-2.443V39.665z"/>
		<path fill="#FFFFFF" d="M238.771,36.57h-5.375v12.257c0,1.668,0.978,2.646,2.606,2.646c0.937,0,1.913-0.285,2.769-0.652
			l0.203,2.199c-0.896,0.326-2.239,0.65-3.176,0.65c-3.501,0-4.845-2.157-4.845-4.844V36.57h-4.072v-2.198h4.072v-5.416h2.442v5.416
			h5.375V36.57z"/>
		<path fill="#FFFFFF" d="M255.708,45.284c0,3.664,0.081,5.74,0.366,7.898h-2.28c-0.163-0.937-0.244-1.994-0.244-3.053h-0.082
			c-1.384,2.402-3.42,3.541-6.596,3.541c-3.217,0-6.637-1.587-6.637-5.577c0-5.741,6.718-6.312,10.423-6.312h2.851v-1.141
			c0-3.257-2.28-4.56-5.293-4.56c-2.199,0-4.072,0.692-5.741,2.117l-1.425-1.669c1.791-1.711,4.723-2.646,7.166-2.646
			c4.561,0,7.492,2.035,7.492,6.799V45.284z M250.822,43.737c-4.071,0-8.143,1.018-8.143,4.234c0,2.32,2.239,3.502,4.274,3.502
			c5.212,0,6.556-3.34,6.556-6.475v-1.262H250.822z"/>
		<path fill="#FFFFFF" d="M275.943,50.414c-1.832,2.199-4.234,3.257-6.922,3.257c-5.782,0-9.894-4.152-9.894-9.894
			s4.111-9.894,9.894-9.894c2.728,0,5.171,1.181,7.003,3.258l-1.954,1.465c-1.425-1.547-3.095-2.524-5.049-2.524
			c-4.601,0-7.451,3.461-7.451,7.695c0,4.235,2.851,7.696,7.451,7.696c2.036,0,3.787-1.06,5.049-2.606L275.943,50.414z"/>
		<path fill="#FFFFFF" d="M288.97,36.57h-5.374v12.257c0,1.668,0.978,2.646,2.605,2.646c0.937,0,1.914-0.285,2.769-0.652
			l0.204,2.199c-0.896,0.326-2.239,0.65-3.176,0.65c-3.502,0-4.846-2.157-4.846-4.844V36.57h-4.071v-2.198h4.071v-5.416h2.443v5.416
			h5.374V36.57z"/>
	</g>
</g>
</svg>
